# xmcd
#
# Track frame offsets:
#	150
#	12042
#	24560
#	37284
#	47141
#	58471
#	70630
#	81899
#	92193
#	107343
#	116785
#	128518
#	138880
#	150929
#	162929
#	173513
#	181848
#	192190
#	203786
#	212738
#	223758
#	234144
#	245816
#	257468
#	266614
#	275773
#	286952
#	297561
#
# Disc length: 4139 seconds
#
# Revision: 1
# Processed by: cddbd v1.5.1PL0 Copyright (c) Steve Scherf et al.
# Submitted via: audiograbber 1.82.02
#
DISCID=9610291c
DTITLE=Hank Snow - The Hank Snow Collection CD 5
DYEAR=1900
DGENRE=
TTITLE0=I Love You Because
TTITLE1=Address Unknown
TTITLE2=Rhumba Boogie
TTITLE3=Music Makin' Mama
TTITLE4=Changing Of The Tide
TTITLE5=These Hands
TTITLE6=Born For You
TTITLE7=The Late Great Love
TTITLE8=Who Will Answer
TTITLE9=Promise To John
TTITLE10=If Today were Yesterday
TTITLE11=For Sale
TTITLE12=Old Monteray
TTITLE13=My Adobe Hacienda
TTITLE14=I Will Never Marry
TTITLE15=Mocking Bird Hill
TTITLE16=No Letter Today
TTITLE17=Old Love Affair
TTITLE18=If Its Wrong To Love You
TTITLE19=When My Blue Moon Turns To Love
TTITLE20=Let's Pretend
TTITLE21=A Pair Of Broken Hearts
TTITLE22=I've Been Everywhere
TTITLE23=Jamacia Farwell
TTITLE24=Blue Cancdian Rockies
TTITLE25=Geisha Girl
TTITLE26=Springtime In Alaska
TTITLE27=Galaway Bay
EXTD=
EXTT0=
EXTT1=
EXTT2=
EXTT3=
EXTT4=
EXTT5=
EXTT6=
EXTT7=
EXTT8=
EXTT9=
EXTT10=
EXTT11=
EXTT12=
EXTT13=
EXTT14=
EXTT15=
EXTT16=
EXTT17=
EXTT18=
EXTT19=
EXTT20=
EXTT21=
EXTT22=
EXTT23=
EXTT24=
EXTT25=
EXTT26=
EXTT27=
PLAYORDER=
